<?xml version="1.0" encoding="UTF-8" standalone="no"?>
<!DOCTYPE svg PUBLIC "-//W3C//DTD SVG 1.1//EN"
 "http://www.w3.org/Graphics/SVG/1.1/DTD/svg11.dtd">
<!-- Generated by graphviz version 2.26.0 (20091210.2329)
 -->
<!-- Title: G Pages: 1 -->
<svg width="255pt" height="315pt"
 viewBox="0.00 0.00 255.00 315.00" xmlns="http://www.w3.org/2000/svg" xmlns:xlink="http://www.w3.org/1999/xlink">
<g id="graph1" class="graph" transform="scale(1 1) rotate(0) translate(4 311)">
<title>G</title>
<polygon fill="white" stroke="white" points="-4,5 -4,-311 252,-311 252,5 -4,5"/>
<g id="graph2" class="cluster"><title>cluster_0</title>
<polygon fill="none" stroke="black" points="8,-86 8,-243 239,-243 239,-86 8,-86"/>
<text text-anchor="middle" x="36" y="-226.4" font-family="Times Roman,serif" font-size="14.00">FooLib</text>
</g>
<!-- foo -->
<g id="node2" class="node"><title>foo</title>
<ellipse fill="none" stroke="black" cx="134" cy="-189" rx="27" ry="19.0919"/>
<text text-anchor="middle" x="134" y="-185.9" font-family="Times Roman,serif" font-size="14.00">foo</text>
</g>
<!-- core -->
<g id="node4" class="node"><title>core</title>
<ellipse fill="none" stroke="black" cx="203" cy="-113" rx="27.7881" ry="19.0919"/>
<text text-anchor="middle" x="203" y="-109.9" font-family="Times Roman,serif" font-size="14.00">core</text>
</g>
<!-- foo&#45;&gt;core -->
<g id="edge3" class="edge"><title>foo&#45;&gt;core</title>
<path fill="none" stroke="black" d="M148.633,-172.882C158.083,-162.474 170.549,-148.743 181.16,-137.055"/>
<polygon fill="black" stroke="black" points="184.02,-139.113 188.15,-129.356 178.837,-134.408 184.02,-139.113"/>
</g>
<!-- extension -->
<g id="node6" class="node"><title>extension</title>
<ellipse fill="none" stroke="black" cx="64" cy="-113" rx="48.0833" ry="19.0919"/>
<text text-anchor="middle" x="64" y="-109.9" font-family="Times Roman,serif" font-size="14.00">extension</text>
</g>
<!-- foo&#45;&gt;extension -->
<g id="edge5" class="edge"><title>foo&#45;&gt;extension</title>
<path fill="none" stroke="black" d="M119.155,-172.882C109.959,-162.899 97.9485,-149.858 87.4835,-138.496"/>
<polygon fill="black" stroke="black" points="89.8884,-135.941 80.5391,-130.957 84.7395,-140.683 89.8884,-135.941"/>
</g>
<!-- extension&#45;&gt;core -->
<g id="edge7" class="edge"><title>extension&#45;&gt;core</title>
<path fill="none" stroke="dimgray" stroke-dasharray="5,2" d="M112.225,-113C129.206,-113 148.062,-113 164.169,-113"/>
<polygon fill="dimgray" stroke="dimgray" points="164.31,-116.5 174.31,-113 164.31,-109.5 164.31,-116.5"/>
<text text-anchor="middle" x="144" y="-119.4" font-family="Times Roman,serif" font-size="14.00" fill="dimgray">depends</text>
</g>
<!-- dependency -->
<g id="node11" class="node"><title>dependency</title>
<ellipse fill="lightgrey" stroke="black" cx="64" cy="-19" rx="56.7776" ry="19.0919"/>
<text text-anchor="middle" x="64" y="-15.9" font-family="Times Roman,serif" font-size="14.00">dependency</text>
</g>
<!-- extension&#45;&gt;dependency -->
<g id="edge12" class="edge"><title>extension&#45;&gt;dependency</title>
<path fill="none" stroke="dimgray" stroke-dasharray="5,2" d="M64,-93.9777C64,-80.9407 64,-63.3883 64,-48.5438"/>
<polygon fill="dimgray" stroke="dimgray" points="67.5001,-48.3166 64,-38.3166 60.5001,-48.3167 67.5001,-48.3166"/>
<text text-anchor="middle" x="92" y="-62.9" font-family="Times Roman,serif" font-size="14.00" fill="dimgray"> &#160;&#160;depends</text>
</g>
<!-- app -->
<g id="node9" class="node"><title>app</title>
<polygon fill="black" stroke="black" points="168,-307 100,-307 100,-271 168,-271 168,-307"/>
<text text-anchor="middle" x="134" y="-285.9" font-family="Times Roman,serif" font-size="14.00" fill="white">Your app</text>
</g>
<!-- app&#45;&gt;foo -->
<g id="edge10" class="edge"><title>app&#45;&gt;foo</title>
<path fill="none" stroke="black" d="M134,-270.658C134,-256.135 134,-235.557 134,-218.693"/>
<polygon fill="black" stroke="black" points="137.5,-218.248 134,-208.248 130.5,-218.248 137.5,-218.248"/>
</g>
</g>

<g transform="translate(0.000000,17.000000) scale(0.100000,-0.100000)"
fill="#000000" stroke="none">
<path d="M21 157 c-29 -35 -16 -97 20 -97 15 0 19 -5 15 -16 -3 -9 -6 -20 -6
-25 0 -5 -4 -9 -10 -9 -14 0 -12 27 3 33 6 3 2 6 -10 6 -30 1 -31 -35 -3 -44
28 -9 47 9 55 51 3 20 9 42 12 50 3 8 -1 14 -11 14 -9 0 -16 -8 -16 -19 0 -26
-15 -34 -30 -16 -13 16 -6 48 16 70 14 13 13 15 -4 15 -11 0 -25 -6 -31 -13z"/>
<path d="M80 150 c0 -13 5 -20 13 -17 6 2 12 10 12 17 0 7 -6 15 -12 18 -8 2
-13 -5 -13 -18z"/>
<path d="M347 164 c-13 -13 -7 -24 14 -24 11 0 19 5 17 12 -5 14 -22 21 -31
12z"/>
<path d="M103 85 c-9 -40 -8 -45 8 -45 13 0 19 9 21 33 2 24 7 31 21 29 10 -2
17 3 17 13 0 10 -9 15 -28 15 -26 0 -30 -5 -39 -45z"/>
<path d="M175 101 c-24 -48 -13 -59 64 -60 63 -1 69 1 79 25 15 31 15 64 1 64
-6 0 -8 -8 -5 -18 4 -10 -1 -27 -10 -38 -14 -18 -15 -17 -9 19 5 29 3 37 -9
37 -9 0 -18 -13 -22 -35 -3 -19 -10 -35 -14 -35 -4 0 -4 16 0 35 8 35 8 35
-26 35 -27 0 -36 -6 -49 -29z m47 -6 c-5 -28 -22 -44 -22 -21 0 21 11 46 20
46 4 0 5 -11 2 -25z"/>
<path d="M340 116 c0 -7 -3 -28 -6 -45 -6 -26 -3 -31 13 -31 10 0 25 6 32 12
11 10 13 10 7 1 -5 -9 3 -13 28 -13 25 0 36 4 36 15 0 8 -4 15 -10 15 -5 0
-10 -4 -10 -10 0 -5 -5 -10 -11 -10 -6 0 -2 12 9 28 36 51 36 52 -2 52 -25 0
-36 -4 -36 -15 0 -8 5 -15 10 -15 6 0 10 5 10 12 0 6 3 9 6 6 9 -10 -19 -46
-39 -52 -17 -4 -18 -1 -13 30 6 27 4 34 -9 34 -8 0 -15 -6 -15 -14z"/>
<path d="M472 118 c-7 -7 -12 -27 -12 -46 0 -30 2 -33 27 -30 17 2 32 12 39
27 7 13 18 28 26 33 10 8 9 8 -4 4 -12 -3 -18 0 -18 9 0 18 -41 20 -58 3z m29
-51 c-13 -13 -15 11 -4 40 7 16 8 15 11 -6 2 -13 -1 -28 -7 -34z"/>
</g>
</svg>
